#!OML:ASF H:\Punching\Project 1\Capture day 1\Session 1\female.ASF
:FULLY-SPECIFIED
:DEGREES
3277
root 2.48256 14.5334 -1.21317 13.8138 12.2675 2.54579
lowerback -4.72617 -2.59965 -2.33497
upperback -8.07228 -3.37129 1.47536
thorax -5.51896 -1.49421 2.83755
lowerneck -16.7571 -1.72211 2.72419
upperneck 39.0661 -3.06438 -1.46136
head 16.9375 -1.02948 -1.71347
rclavicle 2.97183e-014 1.27222e-014
rhumerus 8.34329 16.6713 -64.6996
rradius 133.879
rwrist -14.0849
rhand -29.5423 11.9295
rfingers 7.12502
rthumb -2.87544 -18.0309
lclavicle 2.97183e-014 1.27222e-014
lhumerus 6.15994 -28.4568 73.0019
lradius 136.839
lwrist -0.617615
lhand -23.4147 2.7725
lfingers 7.12502
lthumb 3.04264 32.7305
rfemur -50.8844 -10.2817 10.1795
rtibia 49.8979
rfoot -6.01863 -12.6655
rtoes -2.63548
lfemur 0.265493 -14.769 -20.1418
ltibia 24.3655
lfoot -41.6954 33.6435
ltoes 1.15983
3278
root 2.47921 14.5317 -1.2127 13.8506 12.1473 2.54394
lowerback -4.69344 -2.59262 -2.29445
upperback -8.05082 -3.36274 1.49262
thorax -5.51609 -1.49218 2.8339
lowerneck -16.7912 -1.70037 2.75584
upperneck 39.0392 -3.02591 -1.50621
head 16.9308 -1.01638 -1.73216
rclavicle 1.02374e-014 7.55382e-015
rhumerus 8.27363 16.685 -64.6471
rradius 133.865
rwrist -14.1158
rhand -29.3901 11.8568
rfingers 7.12502
rthumb -2.72842 -18.1055
lclavicle 1.02374e-014 7.55382e-015
lhumerus 6.06288 -28.4519 73.0174
lradius 136.721
lwrist -0.727896
lhand -23.5797 2.49876
lfingers 7.12502
lthumb 2.8833 32.459
rfemur -50.9922 -10.2418 10.2214
rtibia 49.9187
rfoot -6.01705 -12.5954
rtoes -2.60143
lfemur 0.250946 -14.7446 -20.1614
ltibia 24.367
lfoot -41.7755 33.6852
ltoes 1.21343
3279
root 2.47559 14.53 -1.21205 13.8906 12.0232 2.54144
lowerback -4.66446 -2.58405 -2.25125
upperback -8.02387 -3.35211 1.50795
thorax -5.50557 -1.48953 2.82635
lowerneck -16.833 -1.67777 2.79452
upperneck 39.004 -2.9886 -1.55171
head 16.9215 -1.00297 -1.75253
rclavicle 5.69518e-014 -4.77083e-015
rhumerus 8.20239 16.6955 -64.5955
rradius 133.856
rwrist -14.1472
rhand -29.263 11.8113
rfingers 7.12502
rthumb -2.6057 -18.1525
lclavicle 5.69518e-014 -4.77083e-015
lhumerus 5.97929 -28.441 73.0259
lradius 136.66
lwrist -0.711774
lhand -23.6508 2.31138
lfingers 7.12502
lthumb 2.81457 32.2726
rfemur -51.1058 -10.194 10.2634
rtibia 49.9422
rfoot -6.0199 -12.5286
rtoes -2.54232
lfemur 0.234765 -14.726 -20.1812
ltibia 24.3662
lfoot -41.861 33.7353
ltoes 1.27006
3280
root 2.47177 14.5282 -1.21106 13.9329 11.8961 2.54027
lowerback -4.63737 -2.57524 -2.20709
upperback -7.99375 -3.34117 1.52236
thorax -5.49073 -1.48692 2.81708
lowerneck -16.8734 -1.65359 2.83357
upperneck 38.9584 -2.95084 -1.59216
head 16.9064 -0.988866 -1.77029
rclavicle -1.09332e-014 5.56597e-015
rhumerus 8.13061 16.7095 -64.545
rradius 133.848
rwrist -14.1709
rhand -29.1531 11.7653
rfingers 7.12502
rthumb -2.49954 -18.1998
lclavicle -1.09332e-014 5.56597e-015
lhumerus 5.89757 -28.4419 73.0318
lradius 136.617
lwrist -0.67146
lhand -23.746 2.12967
lfingers 7.12502
lthumb 2.72268 32.092
rfemur -51.2229 -10.1424 10.3045
rtibia 49.9682
rfoot -6.02086 -12.4623
rtoes -2.4947
lfemur 0.218993 -14.7092 -20.2031
ltibia 24.3638
lfoot -41.9501 33.7895
ltoes 1.32685
3281
root 2.46784 14.5263 -1.20969 13.9769 11.7648 2.53592
lowerback -4.60883 -2.56583 -2.15803
upperback -7.96706 -3.3294 1.53861
thorax -5.48057 -1.48398 2.80721
lowerneck -16.8967 -1.62843 2.87114
upperneck 38.901 -2.91171 -1.62878
head 16.8808 -0.974272 -1.78512
rclavicle 4.07509e-015 -7.95139e-016
rhumerus 8.04593 16.7346 -64.4955
rradius 133.846
rwrist -14.1802
rhand -29.0708 11.74
rfingers 7.12502
rthumb -2.42009 -18.226
lclavicle 4.07509e-015 -7.95139e-016
lhumerus 5.80115 -28.4578 73.0435
lradius 136.595
lwrist -0.607062
lhand -23.8645 1.96914
lfingers 7.12502
lthumb 2.60822 31.9329
rfemur -51.3434 -10.0842 10.3487
rtibia 49.9951
rfoot -6.02195 -12.3982
rtoes -2.44478
lfemur 0.203897 -14.7005 -20.2246
ltibia 24.3609
lfoot -42.0471 33.8537
ltoes 1.3864
